<mxfile host="app.diagrams.net" modified="2023-08-22T15:00:08.639Z" agent="Mozilla/5.0 (Windows NT 10.0; Win64; x64) AppleWebKit/537.36 (KHTML, like Gecko) Chrome/115.0.0.0 Safari/537.36" etag="V0yFtmNM3lZx0PKkwd5N" version="21.6.6" type="github">
  <diagram name="Page-1" id="aJNvPGV1j7dXfou5CJUt">
    <mxGraphModel dx="712" dy="811" grid="1" gridSize="10" guides="1" tooltips="1" connect="1" arrows="1" fold="1" page="1" pageScale="1" pageWidth="850" pageHeight="1100" math="0" shadow="0">
      <root>
        <mxCell id="0" />
        <mxCell id="1" parent="0" />
        <mxCell id="K2bbMnxz0RQGCQ17qI1y-8" value="" style="edgeStyle=orthogonalEdgeStyle;rounded=0;orthogonalLoop=1;jettySize=auto;html=1;" parent="1" source="K2bbMnxz0RQGCQ17qI1y-1" target="K2bbMnxz0RQGCQ17qI1y-4" edge="1">
          <mxGeometry relative="1" as="geometry" />
        </mxCell>
        <mxCell id="K2bbMnxz0RQGCQ17qI1y-1" value="Concept" style="rounded=0;whiteSpace=wrap;html=1;" parent="1" vertex="1">
          <mxGeometry x="16" y="240" width="80" height="40" as="geometry" />
        </mxCell>
        <mxCell id="K2bbMnxz0RQGCQ17qI1y-9" value="" style="edgeStyle=orthogonalEdgeStyle;rounded=0;orthogonalLoop=1;jettySize=auto;html=1;" parent="1" source="K2bbMnxz0RQGCQ17qI1y-4" target="K2bbMnxz0RQGCQ17qI1y-5" edge="1">
          <mxGeometry relative="1" as="geometry" />
        </mxCell>
        <mxCell id="K2bbMnxz0RQGCQ17qI1y-20" value="" style="edgeStyle=orthogonalEdgeStyle;rounded=0;orthogonalLoop=1;jettySize=auto;html=1;entryX=0.5;entryY=1;entryDx=0;entryDy=0;" parent="1" source="K2bbMnxz0RQGCQ17qI1y-4" target="K2bbMnxz0RQGCQ17qI1y-22" edge="1">
          <mxGeometry relative="1" as="geometry" />
        </mxCell>
        <mxCell id="K2bbMnxz0RQGCQ17qI1y-24" value="" style="edgeStyle=orthogonalEdgeStyle;rounded=0;orthogonalLoop=1;jettySize=auto;html=1;entryX=0.5;entryY=1;entryDx=0;entryDy=0;" parent="1" source="K2bbMnxz0RQGCQ17qI1y-4" target="K2bbMnxz0RQGCQ17qI1y-19" edge="1">
          <mxGeometry relative="1" as="geometry">
            <mxPoint x="171" y="360" as="targetPoint" />
          </mxGeometry>
        </mxCell>
        <mxCell id="K2bbMnxz0RQGCQ17qI1y-4" value="1. Concept Assurance" style="rounded=0;whiteSpace=wrap;html=1;" parent="1" vertex="1">
          <mxGeometry x="131" y="240" width="80" height="40" as="geometry" />
        </mxCell>
        <mxCell id="K2bbMnxz0RQGCQ17qI1y-11" value="" style="edgeStyle=orthogonalEdgeStyle;rounded=0;orthogonalLoop=1;jettySize=auto;html=1;" parent="1" source="K2bbMnxz0RQGCQ17qI1y-5" target="K2bbMnxz0RQGCQ17qI1y-10" edge="1">
          <mxGeometry relative="1" as="geometry" />
        </mxCell>
        <mxCell id="K2bbMnxz0RQGCQ17qI1y-16" value="" style="edgeStyle=orthogonalEdgeStyle;rounded=0;orthogonalLoop=1;jettySize=auto;html=1;" parent="1" source="K2bbMnxz0RQGCQ17qI1y-5" target="K2bbMnxz0RQGCQ17qI1y-7" edge="1">
          <mxGeometry relative="1" as="geometry" />
        </mxCell>
        <mxCell id="K2bbMnxz0RQGCQ17qI1y-18" value="" style="edgeStyle=orthogonalEdgeStyle;rounded=0;orthogonalLoop=1;jettySize=auto;html=1;entryX=0.5;entryY=0;entryDx=0;entryDy=0;" parent="1" source="K2bbMnxz0RQGCQ17qI1y-5" target="K2bbMnxz0RQGCQ17qI1y-6" edge="1">
          <mxGeometry relative="1" as="geometry">
            <mxPoint x="291" y="170" as="targetPoint" />
          </mxGeometry>
        </mxCell>
        <mxCell id="K2bbMnxz0RQGCQ17qI1y-5" value="2. Hazard Identification" style="rounded=0;whiteSpace=wrap;html=1;" parent="1" vertex="1">
          <mxGeometry x="251" y="240" width="80" height="40" as="geometry" />
        </mxCell>
        <mxCell id="K2bbMnxz0RQGCQ17qI1y-26" value="" style="edgeStyle=orthogonalEdgeStyle;rounded=0;orthogonalLoop=1;jettySize=auto;html=1;" parent="1" source="K2bbMnxz0RQGCQ17qI1y-6" target="K2bbMnxz0RQGCQ17qI1y-25" edge="1">
          <mxGeometry relative="1" as="geometry">
            <Array as="points">
              <mxPoint x="251" y="380" />
              <mxPoint x="167" y="380" />
            </Array>
          </mxGeometry>
        </mxCell>
        <mxCell id="K2bbMnxz0RQGCQ17qI1y-28" value="" style="edgeStyle=orthogonalEdgeStyle;rounded=0;orthogonalLoop=1;jettySize=auto;html=1;" parent="1" source="K2bbMnxz0RQGCQ17qI1y-6" target="K2bbMnxz0RQGCQ17qI1y-27" edge="1">
          <mxGeometry relative="1" as="geometry" />
        </mxCell>
        <mxCell id="K2bbMnxz0RQGCQ17qI1y-31" value="" style="edgeStyle=orthogonalEdgeStyle;rounded=0;orthogonalLoop=1;jettySize=auto;html=1;entryX=0.5;entryY=0;entryDx=0;entryDy=0;" parent="1" source="K2bbMnxz0RQGCQ17qI1y-6" target="K2bbMnxz0RQGCQ17qI1y-29" edge="1">
          <mxGeometry relative="1" as="geometry">
            <mxPoint x="76" y="380" as="targetPoint" />
            <Array as="points">
              <mxPoint x="251" y="380" />
              <mxPoint x="69" y="380" />
            </Array>
          </mxGeometry>
        </mxCell>
        <mxCell id="K2bbMnxz0RQGCQ17qI1y-6" value="Real World Hazard" style="rounded=0;whiteSpace=wrap;html=1;" parent="1" vertex="1">
          <mxGeometry x="211" y="320" width="80" height="40" as="geometry" />
        </mxCell>
        <mxCell id="K2bbMnxz0RQGCQ17qI1y-33" value="" style="edgeStyle=orthogonalEdgeStyle;rounded=0;orthogonalLoop=1;jettySize=auto;html=1;" parent="1" source="K2bbMnxz0RQGCQ17qI1y-7" target="K2bbMnxz0RQGCQ17qI1y-32" edge="1">
          <mxGeometry relative="1" as="geometry" />
        </mxCell>
        <mxCell id="K2bbMnxz0RQGCQ17qI1y-36" value="" style="edgeStyle=orthogonalEdgeStyle;rounded=0;orthogonalLoop=1;jettySize=auto;html=1;entryX=0.5;entryY=0;entryDx=0;entryDy=0;" parent="1" source="K2bbMnxz0RQGCQ17qI1y-7" target="K2bbMnxz0RQGCQ17qI1y-34" edge="1">
          <mxGeometry relative="1" as="geometry">
            <mxPoint x="448.5" y="340" as="targetPoint" />
            <Array as="points">
              <mxPoint x="349" y="380" />
              <mxPoint x="439" y="380" />
            </Array>
          </mxGeometry>
        </mxCell>
        <mxCell id="K2bbMnxz0RQGCQ17qI1y-39" value="" style="edgeStyle=orthogonalEdgeStyle;rounded=0;orthogonalLoop=1;jettySize=auto;html=1;entryX=0.5;entryY=0;entryDx=0;entryDy=0;" parent="1" source="K2bbMnxz0RQGCQ17qI1y-7" target="K2bbMnxz0RQGCQ17qI1y-37" edge="1">
          <mxGeometry relative="1" as="geometry">
            <mxPoint x="468.5" y="340" as="targetPoint" />
            <Array as="points">
              <mxPoint x="349" y="380" />
              <mxPoint x="529" y="380" />
            </Array>
          </mxGeometry>
        </mxCell>
        <mxCell id="K2bbMnxz0RQGCQ17qI1y-7" value="Digital Hazard" style="rounded=0;whiteSpace=wrap;html=1;" parent="1" vertex="1">
          <mxGeometry x="308.5" y="320" width="80" height="40" as="geometry" />
        </mxCell>
        <mxCell id="K2bbMnxz0RQGCQ17qI1y-56" value="" style="edgeStyle=orthogonalEdgeStyle;rounded=0;orthogonalLoop=1;jettySize=auto;html=1;" parent="1" source="K2bbMnxz0RQGCQ17qI1y-10" target="K2bbMnxz0RQGCQ17qI1y-55" edge="1">
          <mxGeometry relative="1" as="geometry" />
        </mxCell>
        <mxCell id="K2bbMnxz0RQGCQ17qI1y-57" value="" style="edgeStyle=orthogonalEdgeStyle;rounded=0;orthogonalLoop=1;jettySize=auto;html=1;entryX=0.5;entryY=1;entryDx=0;entryDy=0;" parent="1" source="K2bbMnxz0RQGCQ17qI1y-10" target="K2bbMnxz0RQGCQ17qI1y-54" edge="1">
          <mxGeometry relative="1" as="geometry" />
        </mxCell>
        <mxCell id="K2bbMnxz0RQGCQ17qI1y-10" value="&lt;font style=&quot;font-size: 10px;&quot;&gt;3. Requirements Capturing / Assurance&lt;/font&gt;" style="rounded=0;whiteSpace=wrap;html=1;" parent="1" vertex="1">
          <mxGeometry x="371" y="240" width="80" height="40" as="geometry" />
        </mxCell>
        <mxCell id="K2bbMnxz0RQGCQ17qI1y-15" value="" style="edgeStyle=orthogonalEdgeStyle;rounded=0;orthogonalLoop=1;jettySize=auto;html=1;" parent="1" source="K2bbMnxz0RQGCQ17qI1y-12" target="K2bbMnxz0RQGCQ17qI1y-14" edge="1">
          <mxGeometry relative="1" as="geometry" />
        </mxCell>
        <mxCell id="K2bbMnxz0RQGCQ17qI1y-12" value="5. AS Design Assurance" style="rounded=0;whiteSpace=wrap;html=1;" parent="1" vertex="1">
          <mxGeometry x="550" y="240" width="80" height="40" as="geometry" />
        </mxCell>
        <mxCell id="K2bbMnxz0RQGCQ17qI1y-59" value="" style="edgeStyle=orthogonalEdgeStyle;rounded=0;orthogonalLoop=1;jettySize=auto;html=1;" parent="1" source="K2bbMnxz0RQGCQ17qI1y-14" target="K2bbMnxz0RQGCQ17qI1y-58" edge="1">
          <mxGeometry relative="1" as="geometry" />
        </mxCell>
        <mxCell id="K2bbMnxz0RQGCQ17qI1y-14" value="6. Failure Management" style="rounded=0;whiteSpace=wrap;html=1;" parent="1" vertex="1">
          <mxGeometry x="660" y="240" width="80" height="40" as="geometry" />
        </mxCell>
        <mxCell id="K2bbMnxz0RQGCQ17qI1y-19" value="Initial ODM" style="ellipse;whiteSpace=wrap;html=1;" parent="1" vertex="1">
          <mxGeometry x="86" y="160" width="85" height="40" as="geometry" />
        </mxCell>
        <mxCell id="K2bbMnxz0RQGCQ17qI1y-22" value="Scenario Definition" style="ellipse;whiteSpace=wrap;html=1;" parent="1" vertex="1">
          <mxGeometry x="176" y="160" width="85" height="40" as="geometry" />
        </mxCell>
        <mxCell id="K2bbMnxz0RQGCQ17qI1y-46" value="" style="edgeStyle=orthogonalEdgeStyle;rounded=0;orthogonalLoop=1;jettySize=auto;html=1;" parent="1" source="K2bbMnxz0RQGCQ17qI1y-25" target="K2bbMnxz0RQGCQ17qI1y-44" edge="1">
          <mxGeometry relative="1" as="geometry">
            <Array as="points">
              <mxPoint x="167" y="470" />
              <mxPoint x="296" y="470" />
            </Array>
          </mxGeometry>
        </mxCell>
        <mxCell id="K2bbMnxz0RQGCQ17qI1y-25" value="TLHA" style="ellipse;whiteSpace=wrap;html=1;" parent="1" vertex="1">
          <mxGeometry x="124" y="400" width="85" height="40" as="geometry" />
        </mxCell>
        <mxCell id="K2bbMnxz0RQGCQ17qI1y-45" value="" style="edgeStyle=orthogonalEdgeStyle;rounded=0;orthogonalLoop=1;jettySize=auto;html=1;" parent="1" source="K2bbMnxz0RQGCQ17qI1y-27" target="K2bbMnxz0RQGCQ17qI1y-44" edge="1">
          <mxGeometry relative="1" as="geometry">
            <Array as="points">
              <mxPoint x="252" y="470" />
              <mxPoint x="296" y="470" />
            </Array>
          </mxGeometry>
        </mxCell>
        <mxCell id="K2bbMnxz0RQGCQ17qI1y-27" value="Top Down FTA" style="ellipse;whiteSpace=wrap;html=1;" parent="1" vertex="1">
          <mxGeometry x="209" y="400" width="85" height="40" as="geometry" />
        </mxCell>
        <mxCell id="K2bbMnxz0RQGCQ17qI1y-47" value="" style="edgeStyle=orthogonalEdgeStyle;rounded=0;orthogonalLoop=1;jettySize=auto;html=1;" parent="1" source="K2bbMnxz0RQGCQ17qI1y-29" target="K2bbMnxz0RQGCQ17qI1y-44" edge="1">
          <mxGeometry relative="1" as="geometry">
            <Array as="points">
              <mxPoint x="69" y="470" />
              <mxPoint x="296" y="470" />
            </Array>
          </mxGeometry>
        </mxCell>
        <mxCell id="K2bbMnxz0RQGCQ17qI1y-29" value="Classifications within Fuzzy Logic" style="ellipse;whiteSpace=wrap;html=1;" parent="1" vertex="1">
          <mxGeometry x="14" y="400" width="110" height="40" as="geometry" />
        </mxCell>
        <mxCell id="K2bbMnxz0RQGCQ17qI1y-48" value="" style="edgeStyle=orthogonalEdgeStyle;rounded=0;orthogonalLoop=1;jettySize=auto;html=1;" parent="1" source="K2bbMnxz0RQGCQ17qI1y-32" target="K2bbMnxz0RQGCQ17qI1y-44" edge="1">
          <mxGeometry relative="1" as="geometry">
            <Array as="points">
              <mxPoint x="349" y="470" />
              <mxPoint x="296" y="470" />
            </Array>
          </mxGeometry>
        </mxCell>
        <mxCell id="K2bbMnxz0RQGCQ17qI1y-32" value="Internal FTA" style="ellipse;whiteSpace=wrap;html=1;" parent="1" vertex="1">
          <mxGeometry x="306" y="400" width="85" height="40" as="geometry" />
        </mxCell>
        <mxCell id="K2bbMnxz0RQGCQ17qI1y-49" value="" style="edgeStyle=orthogonalEdgeStyle;rounded=0;orthogonalLoop=1;jettySize=auto;html=1;" parent="1" source="K2bbMnxz0RQGCQ17qI1y-34" target="K2bbMnxz0RQGCQ17qI1y-44" edge="1">
          <mxGeometry relative="1" as="geometry">
            <Array as="points">
              <mxPoint x="439" y="470" />
              <mxPoint x="296" y="470" />
            </Array>
          </mxGeometry>
        </mxCell>
        <mxCell id="K2bbMnxz0RQGCQ17qI1y-34" value="Estimation Relation" style="ellipse;whiteSpace=wrap;html=1;" parent="1" vertex="1">
          <mxGeometry x="396" y="400" width="85" height="40" as="geometry" />
        </mxCell>
        <mxCell id="K2bbMnxz0RQGCQ17qI1y-50" value="" style="edgeStyle=orthogonalEdgeStyle;rounded=0;orthogonalLoop=1;jettySize=auto;html=1;" parent="1" source="K2bbMnxz0RQGCQ17qI1y-37" target="K2bbMnxz0RQGCQ17qI1y-44" edge="1">
          <mxGeometry relative="1" as="geometry">
            <Array as="points">
              <mxPoint x="529" y="470" />
              <mxPoint x="296" y="470" />
            </Array>
          </mxGeometry>
        </mxCell>
        <mxCell id="K2bbMnxz0RQGCQ17qI1y-37" value="Loss Scenario Exploration" style="ellipse;whiteSpace=wrap;html=1;" parent="1" vertex="1">
          <mxGeometry x="486" y="400" width="85" height="40" as="geometry" />
        </mxCell>
        <mxCell id="K2bbMnxz0RQGCQ17qI1y-40" value="Analyze AS decisions" style="text;html=1;strokeColor=none;fillColor=none;align=center;verticalAlign=middle;whiteSpace=wrap;rounded=0;" parent="1" vertex="1">
          <mxGeometry x="378.5" y="325" width="107.5" height="30" as="geometry" />
        </mxCell>
        <mxCell id="K2bbMnxz0RQGCQ17qI1y-41" value="Identify Hazardous Scenarios " style="text;html=1;strokeColor=none;fillColor=none;align=center;verticalAlign=middle;whiteSpace=wrap;rounded=0;" parent="1" vertex="1">
          <mxGeometry x="96" y="325" width="107.5" height="30" as="geometry" />
        </mxCell>
        <mxCell id="K2bbMnxz0RQGCQ17qI1y-44" value="Must Validate ODM" style="whiteSpace=wrap;html=1;" parent="1" vertex="1">
          <mxGeometry x="235" y="490" width="120" height="60" as="geometry" />
        </mxCell>
        <mxCell id="K2bbMnxz0RQGCQ17qI1y-64" value="" style="edgeStyle=orthogonalEdgeStyle;rounded=0;orthogonalLoop=1;jettySize=auto;html=1;" parent="1" source="K2bbMnxz0RQGCQ17qI1y-54" target="K2bbMnxz0RQGCQ17qI1y-62" edge="1">
          <mxGeometry relative="1" as="geometry">
            <Array as="points">
              <mxPoint x="374" y="150" />
              <mxPoint x="411" y="150" />
            </Array>
          </mxGeometry>
        </mxCell>
        <mxCell id="K2bbMnxz0RQGCQ17qI1y-54" value="Incident Reports" style="ellipse;whiteSpace=wrap;html=1;" parent="1" vertex="1">
          <mxGeometry x="331" y="160" width="85" height="40" as="geometry" />
        </mxCell>
        <mxCell id="K2bbMnxz0RQGCQ17qI1y-63" value="" style="edgeStyle=orthogonalEdgeStyle;rounded=0;orthogonalLoop=1;jettySize=auto;html=1;" parent="1" source="K2bbMnxz0RQGCQ17qI1y-55" target="K2bbMnxz0RQGCQ17qI1y-62" edge="1">
          <mxGeometry relative="1" as="geometry">
            <Array as="points">
              <mxPoint x="459" y="150" />
              <mxPoint x="411" y="150" />
            </Array>
          </mxGeometry>
        </mxCell>
        <mxCell id="K2bbMnxz0RQGCQ17qI1y-55" value="Reaction Capturing" style="ellipse;whiteSpace=wrap;html=1;" parent="1" vertex="1">
          <mxGeometry x="416" y="160" width="85" height="40" as="geometry" />
        </mxCell>
        <mxCell id="K2bbMnxz0RQGCQ17qI1y-58" value="7. Safe Operating Context" style="rounded=0;whiteSpace=wrap;html=1;" parent="1" vertex="1">
          <mxGeometry x="770" y="240" width="80" height="40" as="geometry" />
        </mxCell>
        <mxCell id="K2bbMnxz0RQGCQ17qI1y-62" value="4. Hazard Classification" style="whiteSpace=wrap;html=1;" parent="1" vertex="1">
          <mxGeometry x="366" y="100" width="90" height="30" as="geometry" />
        </mxCell>
        <mxCell id="K2bbMnxz0RQGCQ17qI1y-65" value="Comparing the hypothetical system outlined within the ODM and it&#39;s operation within the Scenario Definition, then comparing it to currently available technology / industry trends" style="text;html=1;strokeColor=none;fillColor=none;align=center;verticalAlign=middle;whiteSpace=wrap;rounded=0;" parent="1" vertex="1">
          <mxGeometry x="477.62" y="10" width="224.75" height="90" as="geometry" />
        </mxCell>
        <mxCell id="K2bbMnxz0RQGCQ17qI1y-66" value="" style="endArrow=none;dashed=1;html=1;dashPattern=1 3;strokeWidth=2;rounded=0;entryX=0.5;entryY=0;entryDx=0;entryDy=0;exitX=0.5;exitY=1;exitDx=0;exitDy=0;" parent="1" source="K2bbMnxz0RQGCQ17qI1y-65" target="K2bbMnxz0RQGCQ17qI1y-12" edge="1">
          <mxGeometry width="50" height="50" relative="1" as="geometry">
            <mxPoint x="599.9949999999999" y="100" as="sourcePoint" />
            <mxPoint x="454" y="260" as="targetPoint" />
          </mxGeometry>
        </mxCell>
        <mxCell id="MwabBIaMj5R7mQ2ULn-l-1" value="" style="endArrow=classic;html=1;rounded=0;exitX=1;exitY=0.5;exitDx=0;exitDy=0;entryX=0;entryY=0.5;entryDx=0;entryDy=0;" edge="1" parent="1" source="K2bbMnxz0RQGCQ17qI1y-62" target="K2bbMnxz0RQGCQ17qI1y-12">
          <mxGeometry width="50" height="50" relative="1" as="geometry">
            <mxPoint x="520" y="220" as="sourcePoint" />
            <mxPoint x="570" y="170" as="targetPoint" />
            <Array as="points">
              <mxPoint x="520" y="115" />
              <mxPoint x="520" y="260" />
            </Array>
          </mxGeometry>
        </mxCell>
      </root>
    </mxGraphModel>
  </diagram>
</mxfile>
